<?xml version="1.0" encoding="UTF-8" standalone="no"?>
<!-- Created with Inkscape (http://www.inkscape.org/) -->

<svg
   width="171.96107mm"
   height="139.74702mm"
   viewBox="0 0 171.96107 139.74702"
   version="1.1"
   id="svg618"
   xmlns:inkscape="http://www.inkscape.org/namespaces/inkscape"
   xmlns:sodipodi="http://sodipodi.sourceforge.net/DTD/sodipodi-0.dtd"
   xmlns="http://www.w3.org/2000/svg"
   xmlns:svg="http://www.w3.org/2000/svg">
  <sodipodi:namedview
     id="namedview620"
     pagecolor="#ffffff"
     bordercolor="#666666"
     borderopacity="1.0"
     inkscape:showpageshadow="2"
     inkscape:pageopacity="0.0"
     inkscape:pagecheckerboard="0"
     inkscape:deskcolor="#d1d1d1"
     inkscape:document-units="mm"
     showgrid="false" />
  <defs
     id="defs615" />
  <g
     inkscape:label="Layer 1"
     inkscape:groupmode="layer"
     id="layer1"
     transform="translate(-12.722738,-77.444883)">
    <path
       id="path10754-3"
       style="fill:#4d4d4d;fill-opacity:1;fill-rule:nonzero;stroke:none;stroke-width:1.29597"
       d="m 75.226416,77.444885 c -19.173711,0 -34.717261,15.496411 -34.717261,34.613395 0,1.87992 0.152501,3.72402 0.441834,5.52266 -15.674938,0.51284 -28.228251,13.33626 -28.228251,29.09073 0,16.07853 13.075054,29.1145 29.201318,29.1145 h 6.421313 c 0.840543,14.43196 12.843293,25.87697 27.530103,25.87697 3.008228,0 5.903115,-0.48166 8.613428,-1.36942 4.161194,9.9242 13.989517,16.89819 25.45374,16.89819 15.23074,0 27.57713,-12.31034 27.57713,-27.496 10.56472,0 19.74025,-5.92471 24.37164,-14.62184 13.04322,-2.91363 22.79241,-14.51985 22.79241,-28.4024 0,-14.70615 -10.9375,-26.85854 -25.14317,-28.82873 -3.34617,-17.12236 -18.46797,-30.045715 -36.61947,-30.045715 -6.85786,0 -13.28231,1.846593 -18.80402,5.065324 -6.224849,-9.2948 -16.840377,-15.417664 -28.890744,-15.417664 z"
       inkscape:export-filename="path10754-3.svg"
       inkscape:export-xdpi="96"
       inkscape:export-ydpi="96" />
  </g>
</svg>
